HIERARCHY
ROOT Hips
{
	OFFSET 0.00000 0.00000 0.00000
	CHANNELS 6 Xposition Yposition Zposition Zrotation Yrotation Xrotation 
	JOINT LHipJoint
	{
		OFFSET 0 0 0
		CHANNELS 3 Zrotation Yrotation Xrotation
		JOINT LeftHip
		{
			OFFSET 1.85742 -1.74412 1.01653
			CHANNELS 3 Zrotation Yrotation Xrotation
			JOINT LeftKnee
			{
				OFFSET 2.54803 -7.00067 0.00000
				CHANNELS 3 Zrotation Yrotation Xrotation
				JOINT LeftAnkle
				{
					OFFSET 2.51202 -6.90173 0.00000
					CHANNELS 3 Zrotation Yrotation Xrotation
					JOINT LeftToe
					{
						OFFSET 0.17547 -0.48209 1.64281
						CHANNELS 3 Zrotation Yrotation Xrotation
						End Site
						{
							OFFSET 0.00000 -0.00000 0.86587
						}
					}
				}
			}
		}
	}
	JOINT RHipJoint
	{
		OFFSET 0 0 0
		CHANNELS 3 Zrotation Yrotation Xrotation
		JOINT RightHip
		{
			OFFSET -1.95533 -1.74413 1.01654
			CHANNELS 3 Zrotation Yrotation Xrotation
			JOINT RightKnee
			{
				OFFSET -2.49465 -6.85400 0.00000
				CHANNELS 3 Zrotation Yrotation Xrotation
				JOINT RightAnkle
				{
					OFFSET -2.54783 -7.00010 0.00000
					CHANNELS 3 Zrotation Yrotation Xrotation
					JOINT RightToe
					{
						OFFSET -0.18513 -0.50864 1.69288
						CHANNELS 3 Zrotation Yrotation Xrotation
						End Site
						{
							OFFSET -0.00000 -0.00000 0.89242
						}
					}
				}
			}
		}
	}
	JOINT lowerback
	{
		OFFSET 0 0 0
		CHANNELS 3 Zrotation Yrotation Xrotation
		JOINT Chest
		{
			OFFSET 0.02173 2.16290 -0.15998
			CHANNELS 3 Zrotation Yrotation Xrotation
			JOINT Chest2
			{
				OFFSET 0.00940 2.17323 -0.00467
				CHANNELS 3 Zrotation Yrotation Xrotation
				JOINT lowerneck
				{
					OFFSET 0 0 0
					CHANNELS 3 Zrotation Yrotation Xrotation
					JOINT Neck
					{
						OFFSET 0.01475 1.85823 0.31113
						CHANNELS 3 Zrotation Yrotation Xrotation
						JOINT Head
						{
							OFFSET 0.01902 1.88783 -0.37187
							CHANNELS 3 Zrotation Yrotation Xrotation
							End Site
							{
								OFFSET 0.00489 1.93211 -0.16169
							}
						}
					}
				}
				JOINT LeftCollar
				{
					OFFSET 0 0 0
					CHANNELS 3 Zrotation Yrotation Xrotation
					JOINT LeftShoulder
					{
						OFFSET 3.34199 1.32384 -0.07862
CHANNELS 3 Zrotation Xrotation Yrotation
						JOINT LeftElbow
						{
OFFSET 0 -5.279500 0.000000
CHANNELS 3 Zrotation Xrotation Yrotation
							JOINT LeftWrist
							{
OFFSET 0 -3.535040 0.000000
CHANNELS 3 Zrotation Xrotation Yrotation
								JOINT lhand
								{
									OFFSET 0 0 0
CHANNELS 3 Zrotation Xrotation Yrotation
									JOINT LFingers
									{
OFFSET 0 -0.667950 0.000000
CHANNELS 3 Zrotation Xrotation Yrotation
										End Site
										{
OFFSET 0 -0.538520 0.000000
										}
									}
								}
								JOINT LThumb
								{
OFFSET 0 0.000000 0.000000
CHANNELS 3 Zrotation Xrotation Yrotation
									End Site
									{
OFFSET 0 -0.546740 0.546740
									}
								}
							}
						}
					}
				}
				JOINT RightCollar
				{
					OFFSET 0 0 0
					CHANNELS 3 Zrotation Yrotation Xrotation
					JOINT RightShoulder
					{
						OFFSET -3.16149 1.45719 -0.50507
CHANNELS 3 Zrotation Xrotation Yrotation
						JOINT RightElbow
						{
OFFSET 0 -5.250350 0.000000
CHANNELS 3 Zrotation Xrotation Yrotation
							JOINT RightWrist
							{
OFFSET 0 -3.588840 0.000000
CHANNELS 3 Zrotation Xrotation Yrotation
								JOINT rhand
								{
									OFFSET 0 0 0
CHANNELS 3 Zrotation Xrotation Yrotation
									JOINT RFingers
									{
OFFSET 0 -0.779240 0.000000
CHANNELS 3 Zrotation Xrotation Yrotation
										End Site
										{
OFFSET 0 -0.628240 0.000000
										}
									}
								}
								JOINT RThumb
								{
OFFSET 0 0.000000 0.000000
CHANNELS 3 Zrotation Xrotation Yrotation
									End Site
									{
OFFSET 0 -0.637830 0.637830
									}
								}
							}
						}
					}
				}
			}
		}
	}
}
MOTION
Frames: 6
Frame Time: 0.008333333333333333
-4.559300 17.755200 -2.035300 -16.319100 79.241200 -9.216900 0.000000 0.000000 0.000000 -13.550800 -21.753200 -4.896400 1.192400 6.929000 19.505300 -0.045700 14.848600 -20.589600 2.368100 -9.594000 -27.671700 0.000000 0.000000 0.000000 19.566200 0.935500 -0.914400 0.000000 0.000000 -0.000000 0.983300 -18.699500 -14.848900 -1.448700 -7.608400 21.530700 0.238900 0.231800 2.763900 1.187800 0.382100 -2.511800 1.066100 0.209000 -4.144400 -0.016200 -1.351600 -24.189600 1.002200 -2.074400 25.836700 0.035100 -0.710900 12.630000 -0.000000 -0.000000 0.000000 3.293200 12.157700 -23.374200 13.373700 -21.832300 2.590600 38.523900 5.595600 -53.081000 0.000000 0.000000 0.000000 -7.125000 0.000000 0.000000 -82.237500 86.835000 79.085200 -0.000000 -0.000000 0.000000 -7.524400 8.834200 14.497800 -11.328300 -18.789700 -1.880300 -15.687100 5.116800 -19.014900 0.000000 0.000000 0.000000 7.125000 0.000000 -0.000000 8.132700 10.439900 6.592900
-4.554895 17.754875 -2.037258 -16.536153 79.254944 -9.503977 0.000000 0.000000 0.000000 -13.513140 -21.409360 -4.967603 1.196831 6.941590 19.542346 -0.004294 14.460846 -20.492206 2.334213 -9.530056 -27.467887 0.000000 0.000000 0.000000 19.594186 0.884026 -0.834427 0.000000 0.000000 0.000000 0.975055 -18.682397 -14.968461 -1.529890 -7.809369 22.136506 0.185097 0.232343 2.869594 1.203912 0.381841 -2.515074 1.112580 0.210713 -4.208215 -0.121982 -1.405863 -24.256490 1.054613 -2.125834 26.029161 0.063547 -0.733070 12.723064 0.000000 0.000000 0.000000 3.247275 12.086426 -24.077044 13.956914 -22.672447 2.811911 39.017372 4.955452 -53.269030 0.000000 0.000000 0.000000 -7.125000 0.000000 0.000000 -88.067483 65.429404 62.199864 0.000000 0.000000 0.000000 -7.478110 8.673928 15.839095 -11.847865 -19.575617 -2.051425 -15.792357 3.921598 -19.391327 0.000000 0.000000 0.000000 7.125000 0.000000 0.000000 8.078471 10.044917 6.613411
-4.548994 17.754996 -2.040615 -16.582174 79.250506 -9.600845 0.000000 0.000000 0.000000 -13.550496 -21.317877 -4.897798 1.193401 6.932028 19.514185 -0.011630 14.449764 -20.396326 2.368029 -9.593888 -27.671571 0.000000 0.000000 0.000000 19.595632 0.864919 -0.774787 0.000000 0.000000 0.000000 0.986025 -18.744617 -14.932415 -1.498479 -7.730958 21.900507 0.138926 0.252697 2.878330 1.187165 0.405401 -2.487637 1.119756 0.223212 -4.185279 -0.121158 -1.445283 -24.216067 0.984986 -2.159614 26.062299 0.030929 -0.757106 12.727503 0.000000 0.000000 0.000000 3.214903 11.927859 -24.861549 14.625205 -23.619841 3.075178 39.930553 4.599577 -53.489563 0.000000 0.000000 0.000000 -7.125000 0.000000 0.000000 -96.013850 -87.157805 -98.833905 0.000000 0.000000 0.000000 -7.384700 8.496267 17.228341 -12.457006 -20.485332 -2.260492 -15.846048 2.880850 -19.332190 0.000000 0.000000 0.000000 7.125000 0.000000 0.000000 8.041483 10.098973 6.573652
-4.541394 17.756419 -2.044064 -16.545743 79.255968 -9.614175 0.000000 0.000000 0.000000 -13.632073 -21.433095 -4.742940 1.192025 6.928161 19.502694 -0.020706 14.569797 -20.465561 2.346904 -9.553580 -27.543341 0.000000 0.000000 0.000000 19.576513 0.840061 -0.721288 0.000000 0.000000 0.000000 1.009599 -18.857199 -14.791711 -1.381023 -7.435455 21.012294 0.104732 0.279126 2.884509 1.144491 0.437178 -2.493504 1.092736 0.239289 -4.195376 -0.140005 -1.481219 -24.136580 0.964194 -2.194675 26.123333 0.020521 -0.776097 12.736396 0.000000 0.000000 0.000000 3.189180 11.822132 -25.675694 15.412383 -24.714971 3.397949 40.495111 4.101918 -53.949749 0.000000 0.000000 0.000000 -7.125000 0.000000 0.000000 -107.924634 -87.058690 -110.747244 0.000000 0.000000 0.000000 -7.258205 8.382958 18.609944 -13.140409 -21.490834 -2.505641 -15.919186 1.877920 -19.267002 0.000000 0.000000 0.000000 7.125000 0.000000 0.000000 7.991537 10.156881 6.522517
-4.533934 17.757794 -2.046985 -16.718850 79.289197 -9.808647 0.000000 0.000000 0.000000 -13.646227 -21.511270 -4.650503 1.187383 6.915044 19.463977 -0.012248 14.546156 -20.525509 2.242273 -9.352714 -26.905574 0.000000 0.000000 0.000000 19.586079 0.788634 -0.696162 0.000000 0.000000 0.000000 1.016900 -18.892587 -14.749549 -1.337734 -7.323359 20.676929 0.053917 0.268030 2.872078 1.138855 0.420097 -2.517753 1.116566 0.232379 -4.213450 -0.140357 -1.481909 -24.063857 0.932681 -2.182818 26.228547 0.011181 -0.773111 12.763801 0.000000 0.000000 0.000000 3.091683 11.677790 -26.449183 16.290973 -25.910476 3.773962 39.067641 1.801258 -54.282522 0.000000 0.000000 0.000000 -7.125000 0.000000 0.000000 -101.642305 -86.506585 -105.065408 0.000000 0.000000 0.000000 -7.185058 8.260698 20.055662 -13.891297 -22.576990 -2.787643 -15.973886 0.929738 -19.265946 0.000000 0.000000 0.000000 7.125000 0.000000 0.000000 7.956074 10.151701 6.493820
-4.528035 17.760030 -2.050956 -16.848691 79.350200 -9.951924 0.000000 0.000000 0.000000 -13.660392 -21.516413 -4.613058 1.181350 6.898067 19.413810 -0.009706 14.485974 -20.468480 2.195294 -9.261489 -26.616745 0.000000 0.000000 0.000000 19.584973 0.716399 -0.689318 0.000000 0.000000 0.000000 1.028945 -18.954420 -14.690130 -1.296232 -7.212626 20.347111 -0.004774 0.283917 2.867120 1.132413 0.438332 -2.525996 1.141737 0.243166 -4.219939 -0.153855 -1.504991 -23.979707 0.897510 -2.197527 26.234202 -0.002029 -0.785713 12.748999 0.000000 0.000000 0.000000 3.060159 11.437406 -27.549249 17.274325 -27.214259 4.214071 37.057182 -1.191392 -54.342854 0.000000 0.000000 0.000000 -7.125000 0.000000 0.000000 -92.294158 20.009185 16.483078 0.000000 0.000000 0.000000 -7.185574 8.143349 21.634735 -14.746920 -23.789548 -3.124881 -16.053695 -0.270510 -19.245274 0.000000 0.000000 0.000000 7.125000 0.000000 0.000000 7.903510 10.163545 6.448158
